<svg width="100" height="80" viewBox="0 0 100 80" fill="none" xmlns="http://www.w3.org/2000/svg">
<path fill-rule="evenodd" clip-rule="evenodd" d="M55.9465 68.1872C56.5123 67.8059 57.0383 67.3578 57.5201 66.8411C64.2973 59.5736 59.7786 41.4923 47.4274 26.4553C36.2624 12.8624 22.5188 6.41035 14.976 10.6649L15.032 10.5297L14.5145 10.9435C14.0073 11.271 13.531 11.6507 13.0886 12.084L9.65813 14.8278C9.15084 15.1552 8.67453 15.535 8.23217 15.9683L7.74739 16.356L7.87071 16.3426C1.18815 23.6562 5.71741 41.6693 18.0287 56.6576C30.3799 71.6945 45.8865 77.9929 52.6637 70.7254C52.6705 70.718 52.6774 70.7106 52.6842 70.7032L55.9465 68.1872Z" fill="#FD2073"/>
<ellipse cx="17.8209" cy="34.8975" rx="17.8209" ry="34.8975" transform="matrix(-0.682004 0.731349 0.634722 0.772741 24.7708 0)" fill="black"/>
<path d="M39.9325 32.5976C40.1748 34.1075 39.7546 35.1518 38.9019 35.5552L36.666 37.2607L33.2404 32.6715C33.1342 32.5357 33.0309 32.3973 32.9308 32.2568L32.8638 32.1669L32.8662 32.1651C32.0557 31.003 31.4682 29.702 31.2737 28.49C30.8508 25.8544 32.4463 24.6374 34.8373 25.7717C37.2284 26.906 39.5095 29.962 39.9325 32.5976Z" fill="white"/>
<path d="M29.3435 29.9623C30.7133 30.6122 32.0471 31.8928 33.016 33.3637L36.2129 37.6465L33.8176 39.4736C33.7495 39.5349 33.6769 39.5903 33.5999 39.6397L33.5536 39.675L33.5501 39.6704C32.906 40.0526 31.9747 40.0282 30.8751 39.5066C28.484 38.3723 26.2028 35.3162 25.7799 32.6806C25.357 30.0451 26.9524 28.8281 29.3435 29.9623Z" fill="white"/>
<path d="M40.5188 42.4223C41.4878 43.8933 42.8216 45.1739 44.1915 45.8238C46.5825 46.9581 48.178 45.7411 47.755 43.1055C47.3321 40.4699 45.0509 37.4139 42.6599 36.2796C41.5603 35.7579 40.629 35.7336 39.9848 36.1157L39.9813 36.1111L39.935 36.1465C39.858 36.1958 39.7854 36.2512 39.7174 36.3125L37.3221 38.1396L40.5188 42.4223Z" fill="white"/>
<path d="M33.6292 43.1681C33.3869 41.6582 33.8071 40.6138 34.6598 40.2105L36.8957 38.505L40.3213 43.0943C40.4275 43.2301 40.5308 43.3684 40.6308 43.5089L40.6979 43.5988L40.6955 43.6007C41.5059 44.7628 42.0934 46.0637 42.2879 47.2758C42.7109 49.9113 41.1154 51.1283 38.7244 49.994C36.3333 48.8597 34.0521 45.8037 33.6292 43.1681Z" fill="white"/>
<path fill-rule="evenodd" clip-rule="evenodd" d="M81.3507 40.5483C81.1709 40.4173 81.0042 40.2641 80.852 40.0881C78.7098 37.6104 80.2544 31.5495 84.3021 26.5508C87.961 22.0322 92.4127 19.9283 94.8165 21.3961L94.7992 21.3503L94.9632 21.4919C95.1249 21.6046 95.2762 21.7348 95.4164 21.8829L96.5055 22.8225C96.6667 22.9351 96.8178 23.065 96.9577 23.2127L97.1119 23.3457L97.0722 23.3406C99.1838 25.8334 97.6361 31.8712 93.6015 36.8538C89.5539 41.8525 84.536 43.8961 82.3938 41.4184C82.3915 41.4158 82.3893 41.4132 82.3871 41.4107L81.3507 40.5483Z" fill="#FD2073"/>
<ellipse cx="5.87402" cy="11.5349" rx="5.87402" ry="11.5349" transform="matrix(0.654034 0.756465 -0.6293 0.777162 91.7213 17.7607)" fill="black"/>
<path d="M87.2639 28.6478C87.1828 29.1279 87.3058 29.4627 87.5636 29.5951L88.2364 30.149L89.302 28.7021C89.335 28.6593 89.3671 28.6157 89.3983 28.5714L89.4191 28.5431L89.4184 28.5424C89.6708 28.1758 89.8561 27.7639 89.9211 27.3785C90.0626 26.5405 89.5825 26.1453 88.8487 26.4958C88.1149 26.8463 87.4054 27.8098 87.2639 28.6478Z" fill="white"/>
<path d="M90.502 27.8566C90.0816 28.0574 89.6692 28.4594 89.367 28.9238L88.3726 30.274L89.0934 30.8673C89.1139 30.8872 89.1358 30.9051 89.159 30.9212L89.1729 30.9327L89.174 30.9312C89.3684 31.056 89.6522 31.0525 89.9896 30.8913C90.7234 30.5408 91.433 29.5773 91.5745 28.7393C91.7159 27.9013 91.2358 27.5061 90.502 27.8566Z" fill="white"/>
<path d="M87.038 31.7763C86.7358 32.2406 86.3234 32.6426 85.903 32.8434C85.1692 33.194 84.689 32.7988 84.8305 31.9608C84.972 31.1227 85.6816 30.1593 86.4154 29.8087C86.7528 29.6476 87.0366 29.6441 87.231 29.7688L87.2321 29.7674L87.2461 29.7789C87.2692 29.7949 87.2911 29.8129 87.3115 29.8327L88.0324 30.4261L87.038 31.7763Z" fill="white"/>
<path d="M89.1331 32.0456C89.2142 31.5655 89.0912 31.2307 88.8334 31.0983L88.1605 30.5445L87.095 31.9913C87.062 32.0341 87.0298 32.0777 86.9987 32.122L86.9778 32.1504L86.9786 32.151C86.7261 32.5176 86.5409 32.9296 86.4758 33.3149C86.3343 34.1529 86.8145 34.5481 87.5482 34.1976C88.282 33.8471 88.9916 32.8836 89.1331 32.0456Z" fill="white"/>
</svg>
