<svg width="112" height="36" viewBox="0 0 112 36" fill="none" xmlns="http://www.w3.org/2000/svg">
<path id="Vector" d="M110.811 0.4C110.942 0.4 111.131 0.491489 111.308 0.790166C111.48 1.08029 111.6 1.50709 111.6 2V12.6363C110.759 12.7904 110.053 13.4217 109.555 14.2601C108.974 15.2367 108.628 16.5599 108.628 18C108.628 19.4401 108.974 20.7633 109.555 21.7399C110.053 22.5783 110.759 23.2096 111.6 23.3637V34C111.6 34.4929 111.48 34.9197 111.308 35.2098C111.131 35.5085 110.942 35.6 110.811 35.6H1.18879C1.05808 35.6 0.869565 35.5085 0.692034 35.2098C0.519588 34.9197 0.4 34.4929 0.4 34V23.3637C1.24149 23.2096 1.94702 22.5783 2.44535 21.7399C3.02585 20.7633 3.37197 19.4401 3.37197 18C3.37197 16.5599 3.02585 15.2367 2.44535 14.2601C1.94701 13.4217 1.24149 12.7904 0.4 12.6363V2C0.4 1.5071 0.519588 1.08029 0.692035 0.790169C0.86957 0.491487 1.05809 0.4 1.18879 0.4H110.811Z" fill="#0EE98D" fill-opacity="0.06" stroke="#0EE98D" stroke-width="0.8"/>
</svg>
