<svg width="170" height="36" viewBox="0 0 170 36" fill="none" xmlns="http://www.w3.org/2000/svg">
<path fill-rule="evenodd" clip-rule="evenodd" d="M25.1191 7.09244C25.1191 9.33602 24.0774 11.3363 22.4512 12.6359L18.1415 16.9456C18.0634 17.0237 17.9367 17.0237 17.8586 16.9456L13.2293 12.3163C13.0812 12.1802 12.9389 12.0379 12.8028 11.8898L12.7099 11.7969C12.7085 11.7955 12.7085 11.7932 12.7099 11.7918C12.7113 11.7904 12.7113 11.7883 12.7101 11.7869C11.6049 10.5362 10.9342 8.89264 10.9342 7.09244C10.9342 3.17539 14.1096 0 18.0267 0C21.9437 0 25.1191 3.17539 25.1191 7.09244ZM7.09244 10.9343C9.33663 10.9343 11.3374 11.9766 12.637 13.6035L16.9454 17.9119C17.0235 17.99 17.0235 18.1167 16.9454 18.1948L12.3184 22.8218C12.181 22.9715 12.0372 23.1152 11.8875 23.2527L11.7966 23.3436C11.7952 23.3449 11.793 23.3449 11.7916 23.3436C11.7903 23.3422 11.7882 23.3422 11.7868 23.3434C10.5361 24.4485 8.89259 25.1192 7.09244 25.1192C3.17539 25.1192 0 21.9438 0 18.0267C0 14.1097 3.17539 10.9343 7.09244 10.9343ZM23.3648 22.4514C24.6644 24.0771 26.6644 25.1185 28.9076 25.1185C32.8246 25.1185 36 21.9431 36 18.026C36 14.109 32.8246 10.9336 28.9076 10.9336C27.1072 10.9336 25.4635 11.6044 24.2128 12.7097C24.2115 12.7108 24.2096 12.7108 24.2083 12.7096C24.207 12.7083 24.205 12.7083 24.2037 12.7096L24.1205 12.7927C23.9653 12.9348 23.8163 13.0837 23.6743 13.239L19.0547 17.8585C18.9766 17.9366 18.9766 18.0633 19.0547 18.1414L23.3648 22.4514ZM10.9343 28.9075C10.9343 26.6637 11.9762 24.6633 13.6026 23.3636L17.9119 19.0544C17.99 18.9763 18.1166 18.9763 18.1947 19.0544L22.8227 23.6823C22.9717 23.8192 23.1149 23.9624 23.2518 24.1115L23.3435 24.2031C23.3449 24.2045 23.3449 24.2068 23.3435 24.2082C23.3421 24.2095 23.3421 24.2117 23.3433 24.2131C24.4485 25.4637 25.1191 27.1073 25.1191 28.9075C25.1191 32.8245 21.9437 35.9999 18.0267 35.9999C14.1097 35.9999 10.9343 32.8245 10.9343 28.9075Z" fill="url(#paint0_linear_524_3988)"/>
<path fill-rule="evenodd" clip-rule="evenodd" d="M25.1191 7.09244C25.1191 9.33602 24.0774 11.3363 22.4512 12.6359L18.1415 16.9456C18.0634 17.0237 17.9367 17.0237 17.8586 16.9456L13.2293 12.3163C13.0812 12.1802 12.9389 12.0379 12.8028 11.8898L12.7099 11.7969C12.7085 11.7955 12.7085 11.7932 12.7099 11.7918C12.7113 11.7904 12.7113 11.7883 12.7101 11.7869C11.6049 10.5362 10.9342 8.89264 10.9342 7.09244C10.9342 3.17539 14.1096 0 18.0267 0C21.9437 0 25.1191 3.17539 25.1191 7.09244ZM7.09244 10.9343C9.33663 10.9343 11.3374 11.9766 12.637 13.6035L16.9454 17.9119C17.0235 17.99 17.0235 18.1167 16.9454 18.1948L12.3184 22.8218C12.181 22.9715 12.0372 23.1152 11.8875 23.2527L11.7966 23.3436C11.7952 23.3449 11.793 23.3449 11.7916 23.3436C11.7903 23.3422 11.7882 23.3422 11.7868 23.3434C10.5361 24.4485 8.89259 25.1192 7.09244 25.1192C3.17539 25.1192 0 21.9438 0 18.0267C0 14.1097 3.17539 10.9343 7.09244 10.9343ZM23.3648 22.4514C24.6644 24.0771 26.6644 25.1185 28.9076 25.1185C32.8246 25.1185 36 21.9431 36 18.026C36 14.109 32.8246 10.9336 28.9076 10.9336C27.1072 10.9336 25.4635 11.6044 24.2128 12.7097C24.2115 12.7108 24.2096 12.7108 24.2083 12.7096C24.207 12.7083 24.205 12.7083 24.2037 12.7096L24.1205 12.7927C23.9653 12.9348 23.8163 13.0837 23.6743 13.239L19.0547 17.8585C18.9766 17.9366 18.9766 18.0633 19.0547 18.1414L23.3648 22.4514ZM10.9343 28.9075C10.9343 26.6637 11.9762 24.6633 13.6026 23.3636L17.9119 19.0544C17.99 18.9763 18.1166 18.9763 18.1947 19.0544L22.8227 23.6823C22.9717 23.8192 23.1149 23.9624 23.2518 24.1115L23.3435 24.2031C23.3449 24.2045 23.3449 24.2068 23.3435 24.2082C23.3421 24.2095 23.3421 24.2117 23.3433 24.2131C24.4485 25.4637 25.1191 27.1073 25.1191 28.9075C25.1191 32.8245 21.9437 35.9999 18.0267 35.9999C14.1097 35.9999 10.9343 32.8245 10.9343 28.9075Z" fill="#0EE98D"/>
<mask id="mask0_524_3988" style="mask-type:alpha" maskUnits="userSpaceOnUse" x="0" y="0" width="36" height="36">
<path fill-rule="evenodd" clip-rule="evenodd" d="M25.1191 7.09244C25.1191 9.33602 24.0774 11.3363 22.4512 12.6359L18.1415 16.9456C18.0634 17.0237 17.9367 17.0237 17.8586 16.9456L13.2293 12.3163C13.0812 12.1802 12.9389 12.0379 12.8028 11.8898L12.7099 11.7969C12.7085 11.7955 12.7085 11.7932 12.7099 11.7918C12.7113 11.7904 12.7113 11.7883 12.7101 11.7869C11.6049 10.5362 10.9342 8.89264 10.9342 7.09244C10.9342 3.17539 14.1096 0 18.0267 0C21.9437 0 25.1191 3.17539 25.1191 7.09244ZM7.09244 10.9343C9.33663 10.9343 11.3374 11.9766 12.637 13.6035L16.9454 17.9119C17.0235 17.99 17.0235 18.1167 16.9454 18.1948L12.3184 22.8218C12.181 22.9715 12.0372 23.1152 11.8875 23.2527L11.7966 23.3436C11.7952 23.3449 11.793 23.3449 11.7916 23.3436C11.7903 23.3422 11.7882 23.3422 11.7868 23.3434C10.5361 24.4485 8.89259 25.1192 7.09244 25.1192C3.17539 25.1192 0 21.9438 0 18.0267C0 14.1097 3.17539 10.9343 7.09244 10.9343ZM23.3648 22.4514C24.6644 24.0771 26.6644 25.1185 28.9076 25.1185C32.8246 25.1185 36 21.9431 36 18.026C36 14.109 32.8246 10.9336 28.9076 10.9336C27.1072 10.9336 25.4635 11.6044 24.2128 12.7097C24.2115 12.7108 24.2096 12.7108 24.2083 12.7096C24.207 12.7083 24.205 12.7083 24.2037 12.7096L24.1205 12.7927C23.9653 12.9348 23.8163 13.0837 23.6743 13.239L19.0547 17.8585C18.9766 17.9366 18.9766 18.0633 19.0547 18.1414L23.3648 22.4514ZM10.9343 28.9075C10.9343 26.6637 11.9762 24.6633 13.6026 23.3636L17.9119 19.0544C17.99 18.9763 18.1166 18.9763 18.1947 19.0544L22.8227 23.6823C22.9717 23.8192 23.1149 23.9624 23.2518 24.1115L23.3435 24.2031C23.3449 24.2045 23.3449 24.2068 23.3435 24.2082C23.3421 24.2095 23.3421 24.2117 23.3433 24.2131C24.4485 25.4637 25.1191 27.1073 25.1191 28.9075C25.1191 32.8245 21.9437 35.9999 18.0267 35.9999C14.1097 35.9999 10.9343 32.8245 10.9343 28.9075Z" fill="url(#paint1_linear_524_3988)"/>
<path fill-rule="evenodd" clip-rule="evenodd" d="M25.1191 7.09244C25.1191 9.33602 24.0774 11.3363 22.4512 12.6359L18.1415 16.9456C18.0634 17.0237 17.9367 17.0237 17.8586 16.9456L13.2293 12.3163C13.0812 12.1802 12.9389 12.0379 12.8028 11.8898L12.7099 11.7969C12.7085 11.7955 12.7085 11.7932 12.7099 11.7918C12.7113 11.7904 12.7113 11.7883 12.7101 11.7869C11.6049 10.5362 10.9342 8.89264 10.9342 7.09244C10.9342 3.17539 14.1096 0 18.0267 0C21.9437 0 25.1191 3.17539 25.1191 7.09244ZM7.09244 10.9343C9.33663 10.9343 11.3374 11.9766 12.637 13.6035L16.9454 17.9119C17.0235 17.99 17.0235 18.1167 16.9454 18.1948L12.3184 22.8218C12.181 22.9715 12.0372 23.1152 11.8875 23.2527L11.7966 23.3436C11.7952 23.3449 11.793 23.3449 11.7916 23.3436C11.7903 23.3422 11.7882 23.3422 11.7868 23.3434C10.5361 24.4485 8.89259 25.1192 7.09244 25.1192C3.17539 25.1192 0 21.9438 0 18.0267C0 14.1097 3.17539 10.9343 7.09244 10.9343ZM23.3648 22.4514C24.6644 24.0771 26.6644 25.1185 28.9076 25.1185C32.8246 25.1185 36 21.9431 36 18.026C36 14.109 32.8246 10.9336 28.9076 10.9336C27.1072 10.9336 25.4635 11.6044 24.2128 12.7097C24.2115 12.7108 24.2096 12.7108 24.2083 12.7096C24.207 12.7083 24.205 12.7083 24.2037 12.7096L24.1205 12.7927C23.9653 12.9348 23.8163 13.0837 23.6743 13.239L19.0547 17.8585C18.9766 17.9366 18.9766 18.0633 19.0547 18.1414L23.3648 22.4514ZM10.9343 28.9075C10.9343 26.6637 11.9762 24.6633 13.6026 23.3636L17.9119 19.0544C17.99 18.9763 18.1166 18.9763 18.1947 19.0544L22.8227 23.6823C22.9717 23.8192 23.1149 23.9624 23.2518 24.1115L23.3435 24.2031C23.3449 24.2045 23.3449 24.2068 23.3435 24.2082C23.3421 24.2095 23.3421 24.2117 23.3433 24.2131C24.4485 25.4637 25.1191 27.1073 25.1191 28.9075C25.1191 32.8245 21.9437 35.9999 18.0267 35.9999C14.1097 35.9999 10.9343 32.8245 10.9343 28.9075Z" fill="#0EE98D"/>
</mask>
<g mask="url(#mask0_524_3988)">
<rect x="6.60001" y="18" width="16" height="16" rx="1" transform="rotate(-45 6.60001 18)" fill="#5A40F6"/>
<rect x="6.60001" y="18" width="16" height="16" rx="1" transform="rotate(-45 6.60001 18)" fill="url(#paint2_linear_524_3988)"/>
</g>
<path d="M51.36 21.072H56.88V23.736H48V6.98395H51.36V21.072Z" fill="white"/>
<path d="M71.3276 10.44V23.736H67.9436V22.056C67.5116 22.632 66.9436 23.088 66.2396 23.424C65.5516 23.744 64.7996 23.904 63.9836 23.904C62.9436 23.904 62.0236 23.688 61.2236 23.256C60.4236 22.808 59.7916 22.16 59.3276 21.312C58.8796 20.448 58.6556 19.424 58.6556 18.24V10.44H62.0156V17.76C62.0156 18.816 62.2796 19.632 62.8076 20.208C63.3356 20.768 64.0556 21.048 64.9676 21.048C65.8956 21.048 66.6236 20.768 67.1516 20.208C67.6796 19.632 67.9436 18.816 67.9436 17.76V10.44H71.3276Z" fill="white"/>
<path d="M73.5388 17.088C73.5388 15.712 73.8188 14.512 74.3788 13.488C74.9388 12.448 75.7148 11.648 76.7068 11.088C77.6988 10.512 78.8348 10.224 80.1148 10.224C81.7628 10.224 83.1228 10.64 84.1948 11.472C85.2828 12.288 86.0108 13.44 86.3788 14.928H82.7548C82.5628 14.352 82.2348 13.904 81.7708 13.584C81.3228 13.248 80.7628 13.08 80.0908 13.08C79.1308 13.08 78.3708 13.432 77.8108 14.136C77.2508 14.824 76.9708 15.808 76.9708 17.088C76.9708 18.352 77.2508 19.336 77.8108 20.04C78.3708 20.728 79.1308 21.072 80.0908 21.072C81.4508 21.072 82.3388 20.464 82.7548 19.248H86.3788C86.0108 20.688 85.2828 21.832 84.1948 22.68C83.1068 23.528 81.7468 23.952 80.1148 23.952C78.8348 23.952 77.6988 23.672 76.7068 23.112C75.7148 22.536 74.9388 21.736 74.3788 20.712C73.8188 19.672 73.5388 18.464 73.5388 17.088Z" fill="white"/>
<path d="M96.4723 23.736L91.9603 18.072V23.736H88.6003V5.97595H91.9603V16.08L96.4243 10.44H100.792L94.9363 17.112L100.84 23.736H96.4723Z" fill="white"/>
<path d="M115.096 10.44L106.864 30.024H103.288L106.168 23.4L100.84 10.44H104.608L108.04 19.728L111.52 10.44H115.096Z" fill="white"/>
<path d="M139.059 6.98395L134.379 23.736H130.419L127.275 11.808L123.987 23.736L120.051 23.76L115.539 6.98395H119.139L122.091 19.992L125.499 6.98395H129.243L132.459 19.92L135.435 6.98395H139.059Z" fill="white"/>
<path d="M153.373 16.8C153.373 17.28 153.341 17.712 153.277 18.096H143.557C143.637 19.056 143.973 19.808 144.565 20.352C145.157 20.896 145.885 21.168 146.749 21.168C147.997 21.168 148.885 20.632 149.413 19.56H153.037C152.653 20.84 151.917 21.896 150.829 22.728C149.741 23.544 148.405 23.952 146.821 23.952C145.541 23.952 144.389 23.672 143.365 23.112C142.357 22.536 141.565 21.728 140.989 20.688C140.429 19.648 140.149 18.448 140.149 17.088C140.149 15.712 140.429 14.504 140.989 13.464C141.549 12.424 142.333 11.624 143.341 11.064C144.349 10.504 145.509 10.224 146.821 10.224C148.085 10.224 149.213 10.496 150.205 11.04C151.213 11.584 151.989 12.36 152.533 13.368C153.093 14.36 153.373 15.504 153.373 16.8ZM149.893 15.84C149.877 14.976 149.565 14.288 148.957 13.776C148.349 13.248 147.605 12.984 146.725 12.984C145.893 12.984 145.189 13.24 144.613 13.752C144.053 14.248 143.709 14.944 143.581 15.84H149.893Z" fill="white"/>
<path d="M158.946 12.384C159.378 11.744 159.97 11.224 160.722 10.824C161.49 10.424 162.362 10.224 163.338 10.224C164.474 10.224 165.498 10.504 166.41 11.064C167.338 11.624 168.066 12.424 168.594 13.464C169.138 14.488 169.41 15.68 169.41 17.04C169.41 18.4 169.138 19.608 168.594 20.664C168.066 21.704 167.338 22.512 166.41 23.088C165.498 23.664 164.474 23.952 163.338 23.952C162.346 23.952 161.474 23.76 160.722 23.376C159.986 22.976 159.394 22.464 158.946 21.84V23.736H155.586V5.97595H158.946V12.384ZM165.978 17.04C165.978 16.24 165.81 15.552 165.474 14.976C165.154 14.384 164.722 13.936 164.178 13.632C163.65 13.328 163.074 13.176 162.45 13.176C161.842 13.176 161.266 13.336 160.722 13.656C160.194 13.96 159.762 14.408 159.426 15C159.106 15.592 158.946 16.288 158.946 17.088C158.946 17.888 159.106 18.584 159.426 19.176C159.762 19.768 160.194 20.224 160.722 20.544C161.266 20.848 161.842 21 162.45 21C163.074 21 163.65 20.84 164.178 20.52C164.722 20.2 165.154 19.744 165.474 19.152C165.81 18.56 165.978 17.856 165.978 17.04Z" fill="white"/>
<defs>
<linearGradient id="paint0_linear_524_3988" x1="18.9166" y1="15.1854" x2="15.4771" y2="18.1906" gradientUnits="userSpaceOnUse">
<stop offset="0.430498" stop-color="#0EE98D"/>
<stop offset="1" stop-color="#FEFF97"/>
</linearGradient>
<linearGradient id="paint1_linear_524_3988" x1="18.9166" y1="15.1854" x2="15.4771" y2="18.1906" gradientUnits="userSpaceOnUse">
<stop offset="0.430498" stop-color="#0EE98D"/>
<stop offset="1" stop-color="#FEFF97"/>
</linearGradient>
<linearGradient id="paint2_linear_524_3988" x1="6.60001" y1="18" x2="21.3636" y2="34" gradientUnits="userSpaceOnUse">
<stop stop-color="#FE1C74"/>
<stop offset="1" stop-color="#E76450"/>
</linearGradient>
</defs>
</svg>
