<svg width="36" height="36" viewBox="0 0 36 36" fill="none" xmlns="http://www.w3.org/2000/svg">
<g id="Group 632660">
<g id="Union">
<path fill-rule="evenodd" clip-rule="evenodd" d="M25.1191 7.09244C25.1191 9.33602 24.0774 11.3363 22.4512 12.6359L18.1415 16.9456C18.0634 17.0237 17.9367 17.0237 17.8586 16.9456L13.2293 12.3163C13.0812 12.1802 12.9389 12.0379 12.8028 11.8898L12.7099 11.7969C12.7085 11.7955 12.7085 11.7932 12.7099 11.7918C12.7113 11.7904 12.7113 11.7883 12.7101 11.7869C11.6049 10.5362 10.9342 8.89264 10.9342 7.09244C10.9342 3.17539 14.1096 0 18.0267 0C21.9437 0 25.1191 3.17539 25.1191 7.09244ZM7.09244 10.9343C9.33663 10.9343 11.3374 11.9766 12.637 13.6035L16.9454 17.9119C17.0235 17.99 17.0235 18.1167 16.9454 18.1948L12.3184 22.8218C12.181 22.9715 12.0372 23.1152 11.8875 23.2527L11.7966 23.3436C11.7952 23.3449 11.793 23.3449 11.7916 23.3436C11.7903 23.3422 11.7882 23.3422 11.7868 23.3434C10.5361 24.4485 8.89259 25.1192 7.09244 25.1192C3.17539 25.1192 0 21.9438 0 18.0267C0 14.1097 3.17539 10.9343 7.09244 10.9343ZM23.3648 22.4514C24.6644 24.0771 26.6644 25.1185 28.9076 25.1185C32.8246 25.1185 36 21.9431 36 18.026C36 14.109 32.8246 10.9336 28.9076 10.9336C27.1072 10.9336 25.4635 11.6044 24.2128 12.7097C24.2115 12.7108 24.2096 12.7108 24.2083 12.7096C24.207 12.7083 24.205 12.7083 24.2037 12.7096L24.1205 12.7927C23.9653 12.9348 23.8163 13.0837 23.6743 13.239L19.0547 17.8585C18.9766 17.9366 18.9766 18.0633 19.0547 18.1414L23.3648 22.4514ZM10.9343 28.9075C10.9343 26.6637 11.9762 24.6633 13.6026 23.3636L17.9119 19.0544C17.99 18.9763 18.1166 18.9763 18.1947 19.0544L22.8227 23.6823C22.9717 23.8192 23.1149 23.9624 23.2518 24.1115L23.3435 24.2031C23.3449 24.2045 23.3449 24.2068 23.3435 24.2082C23.3421 24.2095 23.3421 24.2117 23.3433 24.2131C24.4485 25.4637 25.1191 27.1073 25.1191 28.9075C25.1191 32.8245 21.9437 35.9999 18.0267 35.9999C14.1097 35.9999 10.9343 32.8245 10.9343 28.9075Z" fill="url(#paint0_linear_1229_1747)"/>
<path fill-rule="evenodd" clip-rule="evenodd" d="M25.1191 7.09244C25.1191 9.33602 24.0774 11.3363 22.4512 12.6359L18.1415 16.9456C18.0634 17.0237 17.9367 17.0237 17.8586 16.9456L13.2293 12.3163C13.0812 12.1802 12.9389 12.0379 12.8028 11.8898L12.7099 11.7969C12.7085 11.7955 12.7085 11.7932 12.7099 11.7918C12.7113 11.7904 12.7113 11.7883 12.7101 11.7869C11.6049 10.5362 10.9342 8.89264 10.9342 7.09244C10.9342 3.17539 14.1096 0 18.0267 0C21.9437 0 25.1191 3.17539 25.1191 7.09244ZM7.09244 10.9343C9.33663 10.9343 11.3374 11.9766 12.637 13.6035L16.9454 17.9119C17.0235 17.99 17.0235 18.1167 16.9454 18.1948L12.3184 22.8218C12.181 22.9715 12.0372 23.1152 11.8875 23.2527L11.7966 23.3436C11.7952 23.3449 11.793 23.3449 11.7916 23.3436C11.7903 23.3422 11.7882 23.3422 11.7868 23.3434C10.5361 24.4485 8.89259 25.1192 7.09244 25.1192C3.17539 25.1192 0 21.9438 0 18.0267C0 14.1097 3.17539 10.9343 7.09244 10.9343ZM23.3648 22.4514C24.6644 24.0771 26.6644 25.1185 28.9076 25.1185C32.8246 25.1185 36 21.9431 36 18.026C36 14.109 32.8246 10.9336 28.9076 10.9336C27.1072 10.9336 25.4635 11.6044 24.2128 12.7097C24.2115 12.7108 24.2096 12.7108 24.2083 12.7096C24.207 12.7083 24.205 12.7083 24.2037 12.7096L24.1205 12.7927C23.9653 12.9348 23.8163 13.0837 23.6743 13.239L19.0547 17.8585C18.9766 17.9366 18.9766 18.0633 19.0547 18.1414L23.3648 22.4514ZM10.9343 28.9075C10.9343 26.6637 11.9762 24.6633 13.6026 23.3636L17.9119 19.0544C17.99 18.9763 18.1166 18.9763 18.1947 19.0544L22.8227 23.6823C22.9717 23.8192 23.1149 23.9624 23.2518 24.1115L23.3435 24.2031C23.3449 24.2045 23.3449 24.2068 23.3435 24.2082C23.3421 24.2095 23.3421 24.2117 23.3433 24.2131C24.4485 25.4637 25.1191 27.1073 25.1191 28.9075C25.1191 32.8245 21.9437 35.9999 18.0267 35.9999C14.1097 35.9999 10.9343 32.8245 10.9343 28.9075Z" fill="#0EE98D"/>
</g>
<g id="Mask group">
<mask id="mask0_1229_1747" style="mask-type:alpha" maskUnits="userSpaceOnUse" x="0" y="0" width="36" height="36">
<g id="Union_2">
<path fill-rule="evenodd" clip-rule="evenodd" d="M25.1191 7.09244C25.1191 9.33602 24.0774 11.3363 22.4512 12.6359L18.1415 16.9456C18.0634 17.0237 17.9367 17.0237 17.8586 16.9456L13.2293 12.3163C13.0812 12.1802 12.9389 12.0379 12.8028 11.8898L12.7099 11.7969C12.7085 11.7955 12.7085 11.7932 12.7099 11.7918C12.7113 11.7904 12.7113 11.7883 12.7101 11.7869C11.6049 10.5362 10.9342 8.89264 10.9342 7.09244C10.9342 3.17539 14.1096 0 18.0267 0C21.9437 0 25.1191 3.17539 25.1191 7.09244ZM7.09244 10.9343C9.33663 10.9343 11.3374 11.9766 12.637 13.6035L16.9454 17.9119C17.0235 17.99 17.0235 18.1167 16.9454 18.1948L12.3184 22.8218C12.181 22.9715 12.0372 23.1152 11.8875 23.2527L11.7966 23.3436C11.7952 23.3449 11.793 23.3449 11.7916 23.3436C11.7903 23.3422 11.7882 23.3422 11.7868 23.3434C10.5361 24.4485 8.89259 25.1192 7.09244 25.1192C3.17539 25.1192 0 21.9438 0 18.0267C0 14.1097 3.17539 10.9343 7.09244 10.9343ZM23.3648 22.4514C24.6644 24.0771 26.6644 25.1185 28.9076 25.1185C32.8246 25.1185 36 21.9431 36 18.026C36 14.109 32.8246 10.9336 28.9076 10.9336C27.1072 10.9336 25.4635 11.6044 24.2128 12.7097C24.2115 12.7108 24.2096 12.7108 24.2083 12.7096C24.207 12.7083 24.205 12.7083 24.2037 12.7096L24.1205 12.7927C23.9653 12.9348 23.8163 13.0837 23.6743 13.239L19.0547 17.8585C18.9766 17.9366 18.9766 18.0633 19.0547 18.1414L23.3648 22.4514ZM10.9343 28.9075C10.9343 26.6637 11.9762 24.6633 13.6026 23.3636L17.9119 19.0544C17.99 18.9763 18.1166 18.9763 18.1947 19.0544L22.8227 23.6823C22.9717 23.8192 23.1149 23.9624 23.2518 24.1115L23.3435 24.2031C23.3449 24.2045 23.3449 24.2068 23.3435 24.2082C23.3421 24.2095 23.3421 24.2117 23.3433 24.2131C24.4485 25.4637 25.1191 27.1073 25.1191 28.9075C25.1191 32.8245 21.9437 35.9999 18.0267 35.9999C14.1097 35.9999 10.9343 32.8245 10.9343 28.9075Z" fill="url(#paint1_linear_1229_1747)"/>
<path fill-rule="evenodd" clip-rule="evenodd" d="M25.1191 7.09244C25.1191 9.33602 24.0774 11.3363 22.4512 12.6359L18.1415 16.9456C18.0634 17.0237 17.9367 17.0237 17.8586 16.9456L13.2293 12.3163C13.0812 12.1802 12.9389 12.0379 12.8028 11.8898L12.7099 11.7969C12.7085 11.7955 12.7085 11.7932 12.7099 11.7918C12.7113 11.7904 12.7113 11.7883 12.7101 11.7869C11.6049 10.5362 10.9342 8.89264 10.9342 7.09244C10.9342 3.17539 14.1096 0 18.0267 0C21.9437 0 25.1191 3.17539 25.1191 7.09244ZM7.09244 10.9343C9.33663 10.9343 11.3374 11.9766 12.637 13.6035L16.9454 17.9119C17.0235 17.99 17.0235 18.1167 16.9454 18.1948L12.3184 22.8218C12.181 22.9715 12.0372 23.1152 11.8875 23.2527L11.7966 23.3436C11.7952 23.3449 11.793 23.3449 11.7916 23.3436C11.7903 23.3422 11.7882 23.3422 11.7868 23.3434C10.5361 24.4485 8.89259 25.1192 7.09244 25.1192C3.17539 25.1192 0 21.9438 0 18.0267C0 14.1097 3.17539 10.9343 7.09244 10.9343ZM23.3648 22.4514C24.6644 24.0771 26.6644 25.1185 28.9076 25.1185C32.8246 25.1185 36 21.9431 36 18.026C36 14.109 32.8246 10.9336 28.9076 10.9336C27.1072 10.9336 25.4635 11.6044 24.2128 12.7097C24.2115 12.7108 24.2096 12.7108 24.2083 12.7096C24.207 12.7083 24.205 12.7083 24.2037 12.7096L24.1205 12.7927C23.9653 12.9348 23.8163 13.0837 23.6743 13.239L19.0547 17.8585C18.9766 17.9366 18.9766 18.0633 19.0547 18.1414L23.3648 22.4514ZM10.9343 28.9075C10.9343 26.6637 11.9762 24.6633 13.6026 23.3636L17.9119 19.0544C17.99 18.9763 18.1166 18.9763 18.1947 19.0544L22.8227 23.6823C22.9717 23.8192 23.1149 23.9624 23.2518 24.1115L23.3435 24.2031C23.3449 24.2045 23.3449 24.2068 23.3435 24.2082C23.3421 24.2095 23.3421 24.2117 23.3433 24.2131C24.4485 25.4637 25.1191 27.1073 25.1191 28.9075C25.1191 32.8245 21.9437 35.9999 18.0267 35.9999C14.1097 35.9999 10.9343 32.8245 10.9343 28.9075Z" fill="#0EE98D"/>
</g>
</mask>
<g mask="url(#mask0_1229_1747)">
<g id="Rectangle 1170">
<rect x="6.6001" y="18" width="16" height="16" rx="1" transform="rotate(-45 6.6001 18)" fill="#5A40F6"/>
<rect x="6.6001" y="18" width="16" height="16" rx="1" transform="rotate(-45 6.6001 18)" fill="url(#paint2_linear_1229_1747)"/>
</g>
</g>
</g>
</g>
<defs>
<linearGradient id="paint0_linear_1229_1747" x1="18.9166" y1="15.1854" x2="15.4771" y2="18.1906" gradientUnits="userSpaceOnUse">
<stop offset="0.430498" stop-color="#0EE98D"/>
<stop offset="1" stop-color="#FEFF97"/>
</linearGradient>
<linearGradient id="paint1_linear_1229_1747" x1="18.9166" y1="15.1854" x2="15.4771" y2="18.1906" gradientUnits="userSpaceOnUse">
<stop offset="0.430498" stop-color="#0EE98D"/>
<stop offset="1" stop-color="#FEFF97"/>
</linearGradient>
<linearGradient id="paint2_linear_1229_1747" x1="6.6001" y1="18" x2="21.3637" y2="34" gradientUnits="userSpaceOnUse">
<stop stop-color="#FE1C74"/>
<stop offset="1" stop-color="#E76450"/>
</linearGradient>
</defs>
</svg>
